<?xml version="1.0" standalone="no"?>
<!DOCTYPE svg PUBLIC "-//W3C//DTD SVG 20010904//EN"
 "http://www.w3.org/TR/2001/REC-SVG-20010904/DTD/svg10.dtd">
<svg version="1.0" xmlns="http://www.w3.org/2000/svg"
 width="276.000000pt" height="86.000000pt" viewBox="0 0 276.000000 86.000000"
 preserveAspectRatio="xMidYMid meet">

<g transform="translate(0.000000,86.000000) scale(0.100000,-0.100000)"
fill="#000000" stroke="none">
<path d="M2005 678 c-3 -8 -4 -139 -3 -293 l3 -280 285 0 285 0 0 290 0 290
-283 3 c-222 2 -284 0 -287 -10z m379 -144 c9 -4 21 -15 27 -26 9 -16 7 -24
-9 -41 -11 -12 -28 -51 -37 -87 -46 -180 -69 -231 -34 -76 11 49 18 90 16 92
-2 3 -14 -34 -26 -80 -22 -83 -36 -101 -66 -90 -19 8 -19 10 9 127 16 68 20
100 12 102 -41 12 -48 16 -42 30 4 12 -3 15 -37 14 -23 -1 -34 -3 -24 -6 19
-5 22 -18 7 -28 -18 -11 -51 15 -48 38 2 18 11 23 53 28 72 8 181 10 199 3z
m65 -54 c1 -13 0 -13 -9 0 -5 8 -9 24 -9 35 l0 20 9 -20 c5 -11 9 -27 9 -35z"/>
<path d="M2320 490 c0 -5 7 -7 15 -4 8 4 15 8 15 10 0 2 -7 4 -15 4 -8 0 -15
-4 -15 -10z"/>
<path d="M2351 424 c0 -11 3 -14 6 -6 3 7 2 16 -1 19 -3 4 -6 -2 -5 -13z"/>
<path d="M1162 383 l3 -278 298 -3 297 -2 0 280 0 280 -300 0 -300 0 2 -277z
m176 20 l-2 -78 -3 72 c-3 57 -7 73 -21 76 -12 3 -11 5 6 6 21 1 22 -2 20 -76z
m239 40 c-3 -10 -5 -4 -5 12 0 17 2 24 5 18 2 -7 2 -21 0 -30z m-309 -65 l-2
-73 -3 67 c-4 59 -6 67 -26 71 -18 4 -17 5 6 6 l27 1 -2 -72z m118 12 c9 0 14
-11 14 -35 0 -24 5 -35 15 -35 12 0 15 13 15 60 0 45 -3 60 -14 60 -8 0 -17
-10 -19 -22 -4 -20 -4 -19 -6 5 -1 23 3 27 24 27 24 0 25 -2 25 -70 0 -68 -1
-70 -25 -70 -22 0 -25 4 -25 35 0 24 -5 35 -15 35 -11 0 -15 10 -13 38 1 36 1
36 5 5 3 -20 10 -33 19 -33z m121 -32 c-2 -18 -4 -4 -4 32 0 36 2 50 4 33 2
-18 2 -48 0 -65z m105 65 c-2 -16 -10 -33 -17 -39 -8 -5 -15 -26 -18 -45 -4
-33 -4 -32 -5 7 -2 29 3 44 13 48 8 3 15 17 15 31 0 14 4 25 9 25 4 0 6 -12 3
-27z m25 -50 c-2 -16 -4 -3 -4 27 0 30 2 43 4 28 2 -16 2 -40 0 -55z m45 60
c-5 -10 -15 -42 -22 -70 -6 -29 -16 -53 -21 -53 -6 0 -6 7 -1 18 5 9 15 41 22
70 6 28 16 52 21 52 6 0 6 -7 1 -17z m-372 -47 c0 -24 -3 -51 -6 -60 -12 -33
-19 -14 -16 44 4 69 22 82 22 16z m195 -86 l34 0 4 68 3 67 2 -72 2 -73 -45 0
-45 0 2 73 2 72 3 -67 4 -68 34 0z m-278 18 c-2 -18 -4 -4 -4 32 0 36 2 50 4
33 2 -18 2 -48 0 -65z m460 15 c-2 -16 -4 -3 -4 27 0 30 2 43 4 28 2 -16 2
-40 0 -55z m-320 -10 c-3 -10 -5 -2 -5 17 0 19 2 27 5 18 2 -10 2 -26 0 -35z
m245 12 c3 -14 1 -25 -3 -25 -5 0 -9 6 -9 14 0 8 -3 22 -7 32 -4 11 -3 15 4
11 6 -4 13 -18 15 -32z"/>
<path d="M100 445 l0 -175 60 0 c33 0 60 -4 60 -10 0 -6 -27 -10 -60 -10 -47
0 -60 -3 -60 -15 0 -11 12 -15 50 -15 30 0 50 -4 50 -11 0 -7 -16 -9 -50 -4
l-50 7 0 -51 0 -51 410 0 411 0 -2 255 -1 255 -409 0 -409 0 0 -175z m380 151
c0 -3 -5 -17 -10 -32 -13 -33 -36 -19 -25 15 5 17 35 31 35 17z m100 -8 c0
-21 -17 -41 -28 -34 -5 3 -12 15 -15 26 -4 16 0 20 19 20 13 0 24 -6 24 -12z
m100 -14 c0 -8 -9 -14 -20 -14 -13 0 -20 7 -20 19 0 14 5 18 20 14 11 -3 20
-12 20 -19z m110 -32 c0 -27 7 -63 16 -81 9 -18 13 -43 10 -59 -3 -15 -2 -33
3 -41 5 -8 9 14 10 59 1 50 -2 69 -10 64 -7 -4 -7 2 2 17 11 21 13 22 18 6 4
-10 11 -18 16 -18 6 1 11 -25 13 -56 2 -40 6 -53 12 -43 7 11 10 9 10 -12 0
-14 -4 -28 -10 -30 -5 -1 -10 -29 -11 -60 -2 -61 -18 -81 -20 -25 l-1 32 -8
-30 -8 -30 -1 33 c-1 35 -21 36 -21 1 0 -10 -4 -19 -10 -19 -5 0 -10 -14 -10
-31 0 -25 -3 -30 -16 -25 -9 4 -22 2 -28 -3 -21 -16 -189 -31 -203 -17 -3 3 0
13 7 21 11 14 26 15 84 10 65 -6 73 -5 91 15 18 20 20 37 20 191 0 173 0 172
38 178 4 0 7 -21 7 -47z m100 -8 c0 -12 -29 -28 -37 -21 -2 2 -1 11 2 19 7 18
35 20 35 2z m-730 -33 c0 -6 -4 -13 -10 -16 -5 -3 -10 1 -10 9 0 9 5 16 10 16
6 0 10 -4 10 -9z m102 -103 l-3 -107 -42 15 c-27 10 -43 11 -45 4 -4 -12 -42
-14 -42 -1 0 5 6 11 13 14 10 4 9 7 0 18 -7 7 -13 20 -13 28 0 14 1 14 10 1 8
-13 10 -13 10 2 0 11 11 20 28 24 15 3 33 7 40 10 13 4 27 33 37 78 9 43 10
30 7 -86z m438 83 c0 -5 -7 -14 -15 -21 -8 -7 -15 -21 -15 -31 0 -11 -5 -19
-11 -19 -7 0 -9 10 -7 25 3 14 1 25 -3 25 -16 0 -9 18 9 23 29 8 42 7 42 -2z
m-322 -42 c-2 -18 -9 -24 -28 -24 -14 0 -30 -3 -35 -7 -6 -4 -17 -3 -24 2 -21
12 -5 60 19 60 11 0 20 -4 20 -10 0 -5 -7 -10 -15 -10 -8 0 -15 -7 -15 -15 0
-9 6 -12 15 -9 8 4 15 10 15 14 0 5 7 16 16 25 21 20 37 7 32 -26z m49 29 c7
18 23 15 24 -5 1 -17 2 -17 6 0 5 19 23 24 23 6 0 -8 4 -8 13 -2 17 13 77 16
77 3 0 -5 -8 -10 -17 -11 -15 0 -15 -2 2 -9 l20 -9 -20 -1 c-11 -1 -14 -4 -7
-7 19 -8 14 -23 -8 -23 -15 0 -20 7 -21 28 l-2 27 -4 -27 c-5 -29 -17 -37 -27
-15 -5 10 -7 10 -12 0 -8 -19 -24 -16 -25 5 -1 16 -2 16 -6 0 -5 -20 -19 -23
-29 -7 -4 8 -9 7 -15 -2 -6 -10 -9 -4 -9 17 0 36 10 50 23 32 7 -10 10 -10 14
0z m203 -12 c0 -29 -20 -56 -27 -37 -4 11 -7 11 -14 0 -12 -21 -20 -5 -13 28
5 24 11 31 30 31 18 0 24 -6 24 -22z m257 -18 c-3 -8 -6 -5 -6 6 -1 11 2 17 5
13 3 -3 4 -12 1 -19z m-483 -85 c6 -15 8 -15 16 -3 12 20 97 23 104 4 3 -8 4
-20 2 -26 -3 -7 -7 -25 -10 -40 -4 -15 -16 -32 -27 -39 -17 -9 -25 -7 -45 12
-13 12 -24 28 -24 36 0 7 -4 13 -10 13 -5 0 -10 -7 -10 -15 0 -31 -68 -42 -71
-11 -3 26 4 62 13 74 15 18 55 15 62 -5z m234 0 c-2 -10 -10 -18 -18 -18 -9 0
-17 -16 -23 -42 -6 -32 -12 -41 -23 -36 -12 4 -14 15 -9 44 4 26 3 39 -4 39
-6 0 -11 7 -11 15 0 11 12 15 46 15 38 0 45 -3 42 -17z m-255 -140 c-7 -2 -19
-2 -25 0 -7 3 -2 5 12 5 14 0 19 -2 13 -5z"/>
<path d="M361 313 c0 -25 1 -26 9 -8 12 27 12 35 0 35 -5 0 -10 -12 -9 -27z"/>
</g>
</svg>
